<svg width="132" height="123" viewBox="0 0 132 123" fill="none" xmlns="http://www.w3.org/2000/svg">
<rect x="2" y="2" width="127.036" height="118.725" rx="16" stroke="#101010" stroke-width="4" stroke-linejoin="round"/>
<path d="M2.59363 19.8088L128.442 19.8088" stroke="#101010" stroke-width="5" stroke-linecap="round" stroke-linejoin="round"/>
<circle cx="14.763" cy="11.7949" r="1.57769" fill="#101010" stroke="#101010"/>
<circle cx="23.0737" cy="11.7949" r="1.57769" fill="#101010" stroke="#101010"/>
<circle cx="31.3845" cy="11.7949" r="1.57769" fill="#101010" stroke="#101010"/>
<rect x="12.6853" y="29.3069" width="105.072" height="23.1514" rx="5" fill="#676767"/>
<rect x="13.2789" y="78.5778" width="23.745" height="23.745" rx="3" fill="#676767"/>
<rect x="12.6853" y="59.5818" width="52.239" height="2.96813" rx="1.48406" fill="#151515"/>
<rect x="12.6853" y="67.2988" width="39.7729" height="2.96813" rx="1.48406" fill="#151515"/>
<rect x="77.9841" y="67.2988" width="39.7729" height="2.96813" rx="1.48406" fill="#676767"/>
<rect x="83.9203" y="78.5778" width="33.8367" height="2.96813" rx="1.48406" fill="#151515"/>
<rect x="42.3665" y="78.5778" width="33.8367" height="2.96813" rx="1.48406" fill="#676767"/>
<rect x="42.3665" y="87.4822" width="24.9323" height="2.96813" rx="1.48406" fill="#676767"/>
<rect x="42.3665" y="95.1992" width="30.2749" height="2.96813" rx="1.48406" fill="#676767"/>
<rect x="13.2789" y="109.446" width="104.478" height="2.96813" rx="1.48406" fill="#676767"/>
<rect x="83.9203" y="95.1992" width="20.7769" height="2.96813" rx="1.48406" fill="#151515"/>
<rect x="83.9203" y="87.4822" width="27.9004" height="2.96813" rx="1.48406" fill="#151515"/>
</svg>
