<svg width="2204" height="592" viewBox="0 0 2204 592" fill="none" xmlns="http://www.w3.org/2000/svg">
<rect y="40" width="512" height="512" rx="100" fill="white"/>
<path d="M433.395 264.579C432.383 263.755 423.212 256.845 403.857 256.845C398.734 256.845 393.611 257.226 388.551 258.177C384.819 232.375 363.568 219.823 362.619 219.252L357.432 216.209L354.017 221.154C349.716 227.81 346.617 235.101 344.783 242.835C341.304 257.543 343.391 271.363 350.855 283.154C341.873 288.162 327.389 289.43 324.48 289.494H85.3343C79.0726 289.494 74.0127 294.565 74.0127 300.842C73.7597 321.825 77.3016 342.682 84.4488 362.398C92.6712 384.079 104.942 399.992 120.88 409.754C138.717 420.722 167.748 426.998 200.701 426.998C215.564 427.061 230.428 425.667 245.039 422.941C265.342 419.2 284.886 412.1 302.848 401.893C317.649 393.272 330.994 382.368 342.316 369.499C361.227 348.008 372.549 324.044 380.961 302.807H384.313C405.059 302.807 417.835 294.502 424.856 287.529C429.537 283.091 433.205 277.702 435.545 271.68L437 267.305L433.395 264.579ZM107.471 282.584H139.539C141.057 282.584 142.322 281.316 142.322 279.794V251.203C142.322 249.682 141.057 248.414 139.539 248.35H107.471C105.954 248.35 104.689 249.618 104.689 251.14V279.794C104.689 281.379 105.954 282.584 107.471 282.584ZM151.683 282.584H183.75C185.268 282.584 186.533 281.316 186.533 279.794V251.203C186.533 249.682 185.268 248.414 183.75 248.35H151.683C150.101 248.35 148.836 249.618 148.836 251.203V279.794C148.836 281.379 150.101 282.584 151.683 282.584ZM196.463 282.647H228.531C230.049 282.647 231.313 281.379 231.313 279.858V251.267C231.313 249.745 230.049 248.477 228.531 248.414H196.463C194.945 248.414 193.68 249.682 193.68 251.203V279.858C193.68 281.379 194.945 282.584 196.463 282.647ZM240.801 282.647H272.868C274.386 282.647 275.651 281.379 275.714 279.858V251.267C275.714 249.682 274.449 248.414 272.868 248.414H240.801C239.283 248.414 238.018 249.682 238.018 251.203V279.858C238.018 281.379 239.22 282.647 240.801 282.647ZM151.619 241.44H183.687C185.205 241.44 186.47 240.172 186.47 238.587V209.996C186.47 208.475 185.205 207.207 183.687 207.207H151.619C150.038 207.207 148.836 208.475 148.773 209.996V238.587C148.836 240.172 150.101 241.44 151.619 241.44ZM196.463 241.44H228.531C230.049 241.44 231.313 240.172 231.313 238.587V209.996C231.313 208.475 230.049 207.207 228.531 207.207H196.463C194.945 207.207 193.68 208.475 193.68 209.996V238.587C193.68 240.172 194.945 241.44 196.463 241.44ZM240.801 241.44H272.868C274.449 241.44 275.651 240.172 275.714 238.587V209.996C275.714 208.411 274.449 207.207 272.868 207.207H240.801C239.283 207.207 238.018 208.475 238.018 209.996V238.587C238.018 240.172 239.22 241.44 240.801 241.44ZM240.801 200.297H272.868C274.449 200.297 275.714 199.029 275.714 197.444V168.789C275.714 167.268 274.449 166 272.868 166H240.801C239.283 166 238.018 167.268 238.018 168.789V197.444C238.018 199.029 239.22 200.297 240.801 200.297ZM285.455 282.647H317.522C319.04 282.647 320.305 281.379 320.305 279.858V251.267C320.305 249.682 319.04 248.477 317.522 248.414H285.455C283.937 248.414 282.672 249.682 282.672 251.203V279.858C282.672 281.379 283.937 282.647 285.455 282.647Z" fill="#101010"/>
<rect x="564" y="40" width="512" height="512" rx="100" fill="#101010"/>
<path d="M950.577 380.099L840.393 146.107C837.603 140.24 831.822 136.375 825.335 136.039C818.833 135.604 812.628 138.82 809.236 144.385L689.729 337.946C686.019 343.913 686.097 351.488 689.929 357.377L748.357 447.858C752.897 454.834 761.485 457.991 769.462 455.619L939.019 405.465C944.185 403.955 948.442 400.279 950.689 395.389C952.906 390.523 952.867 384.927 950.585 380.091L950.577 380.099ZM925.908 390.135L782.029 432.68C777.639 433.986 773.427 430.181 774.34 425.752L825.743 179.618C826.705 175.013 833.064 174.284 835.074 178.545L930.233 380.62C931.085 382.442 931.095 384.546 930.261 386.377C929.428 388.207 927.834 389.581 925.9 390.135H925.908Z" fill="white"/>
<rect x="1128" y="40" width="512" height="512" rx="100" fill="white"/>
<path fill-rule="evenodd" clip-rule="evenodd" d="M1344.55 225.258L1259 397.862H1430.62L1344.55 225.258Z" fill="#101010"/>
<path fill-rule="evenodd" clip-rule="evenodd" d="M1383.58 147L1349.11 215.93L1383.51 283.731L1418.11 215.957L1383.58 147Z" fill="#101010"/>
<path fill-rule="evenodd" clip-rule="evenodd" d="M1508.07 397.332L1422.57 225.97L1388.63 294.77L1439.54 397.662L1508.07 397.332Z" fill="#101010"/>
<path fill-rule="evenodd" clip-rule="evenodd" d="M1309.37 406.858L1289.96 446L1474.76 445.783L1455.6 406.319L1309.37 406.858Z" fill="#101010"/>
<rect x="1692" y="40" width="512" height="512" rx="100" fill="#101010"/>
<path d="M2121 390.787C2108.41 393.992 2100.63 390.928 2093.64 380.426L2043.97 311.612L2036.79 302.084L1978.78 380.654C1972.16 390.105 1965.2 394.219 1952.83 390.874L2027.12 291.03L1957.96 200.843C1969.85 198.526 1978.07 199.706 1985.37 210.371L2036.89 280.041L2088.79 210.75C2095.44 201.298 2102.59 197.703 2114.52 201.19L2087.71 236.788L2051.38 284.155C2047.05 289.568 2047.65 293.271 2051.63 298.5L2121 390.787ZM1775.09 289.363L1781.16 259.438C1797.71 200.215 1865.5 175.606 1912.25 212.2C1939.58 233.724 1946.37 264.169 1945.02 298.273H1791C1788.69 359.661 1832.81 396.71 1889.07 377.806C1908.8 371.169 1920.43 355.698 1926.25 336.34C1929.2 326.639 1934.08 325.123 1943.19 327.895C1938.54 352.104 1928.05 372.328 1905.89 384.984C1872.77 403.931 1825.49 397.803 1800.63 371.473C1785.81 356.196 1779.69 336.838 1776.95 316.137C1776.51 312.716 1775.65 309.457 1775 306.177C1775.06 300.575 1775.09 294.974 1775.09 289.373V289.363ZM1791.28 285.248H1930.46C1929.55 240.859 1901.95 209.331 1864.22 209.061C1822.81 208.736 1793.08 239.516 1791.28 285.248Z" fill="white"/>
</svg>
